<?xml version="1.0" standalone="no"?>
<!DOCTYPE svg PUBLIC "-//W3C//DTD SVG 20010904//EN"
 "http://www.w3.org/TR/2001/REC-SVG-20010904/DTD/svg10.dtd">
<svg version="1.0" xmlns="http://www.w3.org/2000/svg"
 width="500.000000pt" height="500.000000pt" viewBox="0 0 500.000000 500.000000"
 preserveAspectRatio="xMidYMid meet">
<metadata>
Created by potrace 1.14, written by Peter Selinger 2001-2017
</metadata>
<g transform="translate(0.000000,500.000000) scale(0.100000,-0.100000)"
fill="#000000" stroke="none">
<path d="M585 4359 c-39 -11 -88 -55 -111 -99 -17 -33 -18 -104 -19 -1560 -1
-839 0 -1528 2 -1533 4 -6 76 43 93 63 3 4 36 30 74 59 37 28 74 57 81 64 7 7
25 21 41 32 15 11 53 40 84 65 30 25 76 61 100 80 60 46 57 44 120 93 30 24
103 82 162 129 l108 85 1211 -1 c666 -1 1215 2 1221 5 11 7 14 2312 3 2377 -8
50 -57 109 -109 133 -39 18 -102 19 -1536 18 -842 -1 -1508 -5 -1525 -10z
m1030 -1256 l0 -158 -150 -1 c-83 -1 -157 0 -165 2 -13 3 -15 28 -14 156 1 84
2 154 3 156 0 1 74 2 164 2 l162 0 0 -157z m658 15 c-1 -79 -2 -150 -2 -158
-1 -14 -24 -16 -163 -15 l-163 0 -1 150 c-1 83 1 153 3 158 2 4 77 7 166 7
l162 0 -2 -142z m659 90 c2 -29 2 -101 0 -159 l-3 -105 -157 2 c-86 1 -160 2
-163 3 -3 0 -6 71 -5 156 l0 155 163 0 162 0 3 -52z"/>
<path d="M4157 3185 c-1 -5 -2 -459 -2 -1007 1 -549 -1 -998 -4 -998 -5 0 -73
50 -81 60 -3 3 -34 28 -70 55 -36 27 -67 52 -70 55 -20 23 -116 90 -129 90
-19 1 -1951 1 -1968 0 -16 0 -11 -232 6 -273 16 -41 74 -92 118 -104 26 -8
301 -11 880 -11 l842 0 43 -33 c64 -50 68 -53 81 -64 121 -99 717 -566 730
-571 17 -6 16 2647 -1 2687 -18 44 -71 97 -110 110 -46 16 -260 19 -265 4z"/>
</g>
</svg>
