<svg width="180" height="176" viewBox="0 0 180 176" fill="none" xmlns="http://www.w3.org/2000/svg">
<path fill-rule="evenodd" clip-rule="evenodd" d="M0 141.458L38.125 111.452H145.482V8.57319C145.482 6.29944 144.581 4.11882 142.976 2.51103C141.371 0.903246 139.194 0 136.925 0H8.55779C6.28812 0 4.11142 0.903246 2.50652 2.51103C0.901622 4.11882 0 6.29944 0 8.57319V141.458ZM36.5522 62.7521V48.842H51.0494V62.7521H36.5522ZM65.5466 62.7521V48.842H80.0438V62.7521H65.5466ZM94.541 48.842V62.7521H109.038V48.842H94.541Z" fill="#2C70F4"/>
<path fill-rule="evenodd" clip-rule="evenodd" d="M147.797 128.847H60.1909V137.421C60.1909 139.694 61.0925 141.875 62.6974 143.483C64.3023 145.091 66.479 145.994 68.7487 145.994H141.875L180 176V60.2619C180 57.9882 179.098 55.8075 177.493 54.1998C175.888 52.592 173.712 51.6887 171.442 51.6887H162.884V140.721L147.797 128.847Z" fill="#B9D1FF"/>
</svg>
